<svg xmlns="http://www.w3.org/2000/svg" xmlns:xlink="http://www.w3.org/1999/xlink" contentStyleType="text/css" data-diagram-type="SEQUENCE" height="907px" preserveAspectRatio="none" style="width:1748px;height:907px;background:#FFFFFF;" version="1.1" viewBox="0 0 1748 907" width="1748px" zoomAndPan="magnify"><title>WriteRateLimiter middleware flow (cdmp-mini)</title><defs/><g><text fill="#000000" font-family="sans-serif" font-size="14" font-weight="bold" lengthAdjust="spacing" textLength="372.2031" x="692.2073" y="27.9951">WriteRateLimiter middleware flow (cdmp-mini)</text><rect fill="none" height="506.5391" style="stroke:#000000;stroke-width:1.5;" width="996.2837" x="109.5498" y="222.9922"/><rect fill="none" height="344.0703" style="stroke:#000000;stroke-width:1.5;" width="976.2837" x="119.5498" y="378.4609"/><rect fill="none" height="90.2031" style="stroke:#000000;stroke-width:1.5;" width="473.7432" x="129.5498" y="489.9922"/><rect fill="none" height="77.3984" style="stroke:#000000;stroke-width:1.5;" width="473.7432" x="129.5498" y="638.1328"/><g><title>Client</title><rect fill="#000000" fill-opacity="0.00000" height="708.4688" width="8" x="24.2651" y="118.5938"/><line style="stroke:#181818;stroke-width:0.5;stroke-dasharray:5,5;" x1="28" x2="28" y1="118.5938" y2="827.0625"/></g><g><title>Gin Handler</title><rect fill="#000000" fill-opacity="0.00000" height="708.4688" width="8" x="184.1431" y="118.5938"/><line style="stroke:#181818;stroke-width:0.5;stroke-dasharray:5,5;" x1="187.5498" x2="187.5498" y1="118.5938" y2="827.0625"/></g><g><title>WriteRateLimiter middleware</title><rect fill="#000000" fill-opacity="0.00000" height="708.4688" width="8" x="479.4292" y="118.5938"/><line style="stroke:#181818;stroke-width:0.5;stroke-dasharray:5,5;" x1="482.5654" x2="482.5654" y1="118.5938" y2="827.0625"/></g><g><title>Local Rate Checker</title><rect fill="#000000" fill-opacity="0.00000" height="708.4688" width="8" x="766.7363" y="118.5938"/><line style="stroke:#181818;stroke-width:0.5;stroke-dasharray:5,5;" x1="770.0981" x2="770.0981" y1="118.5938" y2="827.0625"/></g><g><title>RedisCluster</title><rect fill="#000000" fill-opacity="0.00000" height="708.4688" width="8" x="902.4253" y="118.5938"/><line style="stroke:#181818;stroke-width:0.5;stroke-dasharray:5,5;" x1="906.3745" x2="906.3745" y1="118.5938" y2="827.0625"/></g><g><title>Lua Script Eval</title><rect fill="#000000" fill-opacity="0.00000" height="708.4688" width="8" x="1022.6548" y="118.5938"/><line style="stroke:#181818;stroke-width:0.5;stroke-dasharray:5,5;" x1="1026.4761" x2="1026.4761" y1="118.5938" y2="827.0625"/></g><g class="participant participant-head" data-participant="Client"><text fill="#000000" font-family="sans-serif" font-size="14" lengthAdjust="spacing" textLength="40.5303" x="5" y="115.292">Client</text><ellipse cx="28.2651" cy="50.7969" fill="#E2E2F0" rx="8" ry="8" style="stroke:#181818;stroke-width:0.5;"/><path d="M28.2651,58.7969 L28.2651,85.7969 M15.2651,66.7969 L41.2651,66.7969 M28.2651,85.7969 L15.2651,100.7969 M28.2651,85.7969 L41.2651,100.7969" fill="none" style="stroke:#181818;stroke-width:0.5;"/></g><g class="participant participant-tail" data-participant="Client"><text fill="#000000" font-family="sans-serif" font-size="14" lengthAdjust="spacing" textLength="40.5303" x="5" y="839.0576">Client</text><ellipse cx="28.2651" cy="850.8594" fill="#E2E2F0" rx="8" ry="8" style="stroke:#181818;stroke-width:0.5;"/><path d="M28.2651,858.8594 L28.2651,885.8594 M15.2651,866.8594 L41.2651,866.8594 M28.2651,885.8594 L15.2651,900.8594 M28.2651,885.8594 L41.2651,900.8594" fill="none" style="stroke:#181818;stroke-width:0.5;"/></g><g class="participant participant-head" data-participant="Handler"><rect fill="#E2E2F0" height="30.2969" rx="2.5" ry="2.5" style="stroke:#181818;stroke-width:0.5;" width="97.1865" x="139.5498" y="87.2969"/><text fill="#000000" font-family="sans-serif" font-size="14" lengthAdjust="spacing" textLength="83.1865" x="146.5498" y="107.292">Gin Handler</text></g><g class="participant participant-tail" data-participant="Handler"><rect fill="#E2E2F0" height="30.2969" rx="2.5" ry="2.5" style="stroke:#181818;stroke-width:0.5;" width="97.1865" x="139.5498" y="826.0625"/><text fill="#000000" font-family="sans-serif" font-size="14" lengthAdjust="spacing" textLength="83.1865" x="146.5498" y="846.0576">Gin Handler</text></g><g class="participant participant-head" data-participant="Limiter"><rect fill="#E2E2F0" height="30.2969" rx="2.5" ry="2.5" style="stroke:#181818;stroke-width:0.5;" width="219.7275" x="373.5654" y="87.2969"/><text fill="#000000" font-family="sans-serif" font-size="14" lengthAdjust="spacing" textLength="205.7275" x="380.5654" y="107.292">WriteRateLimiter middleware</text></g><g class="participant participant-tail" data-participant="Limiter"><rect fill="#E2E2F0" height="30.2969" rx="2.5" ry="2.5" style="stroke:#181818;stroke-width:0.5;" width="219.7275" x="373.5654" y="826.0625"/><text fill="#000000" font-family="sans-serif" font-size="14" lengthAdjust="spacing" textLength="205.7275" x="380.5654" y="846.0576">WriteRateLimiter middleware</text></g><g class="participant participant-head" data-participant="Local"><rect fill="#E2E2F0" height="30.2969" rx="2.5" ry="2.5" style="stroke:#181818;stroke-width:0.5;" width="149.2764" x="696.0981" y="87.2969"/><text fill="#000000" font-family="sans-serif" font-size="14" lengthAdjust="spacing" textLength="135.2764" x="703.0981" y="107.292">Local Rate Checker</text></g><g class="participant participant-tail" data-participant="Local"><rect fill="#E2E2F0" height="30.2969" rx="2.5" ry="2.5" style="stroke:#181818;stroke-width:0.5;" width="149.2764" x="696.0981" y="826.0625"/><text fill="#000000" font-family="sans-serif" font-size="14" lengthAdjust="spacing" textLength="135.2764" x="703.0981" y="846.0576">Local Rate Checker</text></g><g class="participant participant-head" data-participant="Redis"><rect fill="#E2E2F0" height="30.2969" rx="2.5" ry="2.5" style="stroke:#181818;stroke-width:0.5;" width="102.1016" x="855.3745" y="87.2969"/><text fill="#000000" font-family="sans-serif" font-size="14" lengthAdjust="spacing" textLength="88.1016" x="862.3745" y="107.292">RedisCluster</text></g><g class="participant participant-tail" data-participant="Redis"><rect fill="#E2E2F0" height="30.2969" rx="2.5" ry="2.5" style="stroke:#181818;stroke-width:0.5;" width="102.1016" x="855.3745" y="826.0625"/><text fill="#000000" font-family="sans-serif" font-size="14" lengthAdjust="spacing" textLength="88.1016" x="862.3745" y="846.0576">RedisCluster</text></g><g class="participant participant-head" data-participant="Lua"><rect fill="#E2E2F0" height="30.2969" rx="2.5" ry="2.5" style="stroke:#181818;stroke-width:0.5;" width="118.3574" x="967.4761" y="87.2969"/><text fill="#000000" font-family="sans-serif" font-size="14" lengthAdjust="spacing" textLength="104.3574" x="974.4761" y="107.292">Lua Script Eval</text></g><g class="participant participant-tail" data-participant="Lua"><rect fill="#E2E2F0" height="30.2969" rx="2.5" ry="2.5" style="stroke:#181818;stroke-width:0.5;" width="118.3574" x="967.4761" y="826.0625"/><text fill="#000000" font-family="sans-serif" font-size="14" lengthAdjust="spacing" textLength="104.3574" x="974.4761" y="846.0576">Lua Script Eval</text></g><g class="message" data-participant-1="Client" data-participant-2="Handler"><polygon fill="#181818" points="176.1431,145.7266,186.1431,149.7266,176.1431,153.7266,180.1431,149.7266" style="stroke:#181818;stroke-width:1;"/><line style="stroke:#181818;stroke-width:1;" x1="28.2651" x2="182.1431" y1="149.7266" y2="149.7266"/><text fill="#000000" font-family="sans-serif" font-size="13" lengthAdjust="spacing" textLength="135.8779" x="35.2651" y="144.6606">HTTP POST /v1/users</text></g><g class="message" data-participant-1="Handler" data-participant-2="Limiter"><polygon fill="#181818" points="471.4292,174.8594,481.4292,178.8594,471.4292,182.8594,475.4292,178.8594" style="stroke:#181818;stroke-width:1;"/><line style="stroke:#181818;stroke-width:1;" x1="188.1431" x2="477.4292" y1="178.8594" y2="178.8594"/><text fill="#000000" font-family="sans-serif" font-size="13" lengthAdjust="spacing" textLength="157.7266" x="195.1431" y="173.7935">invoke WriteRateLimiter</text></g><g class="message" data-participant-1="Limiter" data-participant-2="Local"><polygon fill="#181818" points="758.7363,203.9922,768.7363,207.9922,758.7363,211.9922,762.7363,207.9922" style="stroke:#181818;stroke-width:1;"/><line style="stroke:#181818;stroke-width:1;" x1="483.4292" x2="764.7363" y1="207.9922" y2="207.9922"/><text fill="#000000" font-family="sans-serif" font-size="13" lengthAdjust="spacing" textLength="263.3071" x="490.4292" y="202.9263">localRateCheck(identifier, limit, window)</text></g><path d="M109.5498,222.9922 L173.9927,222.9922 L173.9927,230.125 L163.9927,240.125 L109.5498,240.125 L109.5498,222.9922" fill="#EEEEEE" style="stroke:#000000;stroke-width:1.5;"/><rect fill="none" height="506.5391" style="stroke:#000000;stroke-width:1.5;" width="996.2837" x="109.5498" y="222.9922"/><text fill="#000000" font-family="sans-serif" font-size="13" font-weight="bold" lengthAdjust="spacing" textLength="19.4429" x="124.5498" y="236.0591">alt</text><text fill="#000000" font-family="sans-serif" font-size="11" font-weight="bold" lengthAdjust="spacing" textLength="103.1357" x="188.9927" y="235.2026">[local over-limit]</text><path d="M1110.8335,227.9922 L1110.8335,282.9922 L1741.8335,282.9922 L1741.8335,237.9922 L1731.8335,227.9922 L1110.8335,227.9922" fill="#FEFFDD" style="stroke:#181818;stroke-width:0.5;"/><path d="M1731.8335,227.9922 L1731.8335,237.9922 L1741.8335,237.9922 L1731.8335,227.9922" fill="#FEFFDD" style="stroke:#181818;stroke-width:0.5;"/><text fill="#000000" font-family="sans-serif" font-size="13" lengthAdjust="spacing" textLength="460.1226" x="1116.8335" y="245.0591">- Redis operations have short timeouts to avoid blocking request path.</text><text fill="#000000" font-family="sans-serif" font-size="13" lengthAdjust="spacing" textLength="610.7842" x="1116.8335" y="260.1919">- Lua script performs INCR+EXPIRE atomically to implement sliding/rolling window semantics.</text><text fill="#000000" font-family="sans-serif" font-size="13" lengthAdjust="spacing" textLength="584.0034" x="1116.8335" y="275.3247">- Metrics.WriteLimiterTotal incremented on reasons: local_rate, redis_limit, redis_timeout.</text><g class="message" data-participant-1="Local" data-participant-2="Limiter"><polygon fill="#181818" points="494.4292,257.2578,484.4292,261.2578,494.4292,265.2578,490.4292,261.2578" style="stroke:#181818;stroke-width:1;"/><line style="stroke:#181818;stroke-width:1;stroke-dasharray:2,2;" x1="488.4292" x2="769.7363" y1="261.2578" y2="261.2578"/><text fill="#000000" font-family="sans-serif" font-size="13" lengthAdjust="spacing" textLength="130.2539" x="500.4292" y="256.1919">reject -&gt; return 429</text></g><g class="message" data-participant-1="Limiter" data-participant-2="Handler"><polygon fill="#181818" points="199.1431,286.3906,189.1431,290.3906,199.1431,294.3906,195.1431,290.3906" style="stroke:#181818;stroke-width:1;"/><line style="stroke:#181818;stroke-width:1;stroke-dasharray:2,2;" x1="193.1431" x2="482.4292" y1="290.3906" y2="290.3906"/><text fill="#000000" font-family="sans-serif" font-size="13" lengthAdjust="spacing" textLength="156.3364" x="205.1431" y="285.3247">429 Too Many Requests</text></g><line style="stroke:#000000;stroke-width:1;stroke-dasharray:2,2;" x1="109.5498" x2="1105.8335" y1="299.3906" y2="299.3906"/><text fill="#000000" font-family="sans-serif" font-size="11" font-weight="bold" lengthAdjust="spacing" textLength="57.7983" x="114.5498" y="309.6011">[local ok]</text><g class="message" data-participant-1="Local" data-participant-2="Limiter"><polygon fill="#181818" points="494.4292,330.3281,484.4292,334.3281,494.4292,338.3281,490.4292,334.3281" style="stroke:#181818;stroke-width:1;"/><line style="stroke:#181818;stroke-width:1;stroke-dasharray:2,2;" x1="488.4292" x2="769.7363" y1="334.3281" y2="334.3281"/><text fill="#000000" font-family="sans-serif" font-size="13" lengthAdjust="spacing" textLength="15.4819" x="500.4292" y="329.2622">ok</text></g><g class="message" data-participant-1="Limiter" data-participant-2="Redis"><polygon fill="#181818" points="894.4253,359.4609,904.4253,363.4609,894.4253,367.4609,898.4253,363.4609" style="stroke:#181818;stroke-width:1;"/><line style="stroke:#181818;stroke-width:1;" x1="483.4292" x2="900.4253" y1="363.4609" y2="363.4609"/><text fill="#000000" font-family="sans-serif" font-size="13" lengthAdjust="spacing" textLength="245.083" x="490.4292" y="358.395">GET globalKey (short timeout 150ms)</text></g><path d="M119.5498,378.4609 L183.9927,378.4609 L183.9927,385.5938 L173.9927,395.5938 L119.5498,395.5938 L119.5498,378.4609" fill="#EEEEEE" style="stroke:#000000;stroke-width:1.5;"/><rect fill="none" height="344.0703" style="stroke:#000000;stroke-width:1.5;" width="976.2837" x="119.5498" y="378.4609"/><text fill="#000000" font-family="sans-serif" font-size="13" font-weight="bold" lengthAdjust="spacing" textLength="19.4429" x="134.5498" y="391.5278">alt</text><text fill="#000000" font-family="sans-serif" font-size="11" font-weight="bold" lengthAdjust="spacing" textLength="188.9014" x="198.9927" y="390.6714">[redis responds with override]</text><g class="message" data-participant-1="Redis" data-participant-2="Limiter"><polygon fill="#181818" points="494.4292,412.7266,484.4292,416.7266,494.4292,420.7266,490.4292,416.7266" style="stroke:#181818;stroke-width:1;"/><line style="stroke:#181818;stroke-width:1;stroke-dasharray:2,2;" x1="488.4292" x2="905.4253" y1="416.7266" y2="416.7266"/><text fill="#000000" font-family="sans-serif" font-size="13" lengthAdjust="spacing" textLength="35.5088" x="500.4292" y="411.6606">value</text></g><g class="message" data-participant-1="Limiter" data-participant-2="Lua"><polygon fill="#181818" points="1014.6548,441.8594,1024.6548,445.8594,1014.6548,449.8594,1018.6548,445.8594" style="stroke:#181818;stroke-width:1;"/><line style="stroke:#181818;stroke-width:1;" x1="483.4292" x2="1020.6548" y1="445.8594" y2="445.8594"/><text fill="#000000" font-family="sans-serif" font-size="13" lengthAdjust="spacing" textLength="238.3228" x="490.4292" y="440.7935">Eval(rateLimitKey, limit, windowSec)</text></g><g class="message" data-participant-1="Lua" data-participant-2="Limiter"><polygon fill="#181818" points="494.4292,470.9922,484.4292,474.9922,494.4292,478.9922,490.4292,474.9922" style="stroke:#181818;stroke-width:1;"/><line style="stroke:#181818;stroke-width:1;stroke-dasharray:2,2;" x1="488.4292" x2="1025.6548" y1="474.9922" y2="474.9922"/><text fill="#000000" font-family="sans-serif" font-size="13" lengthAdjust="spacing" textLength="129.1812" x="500.4292" y="469.9263">[limited, remaining]</text></g><path d="M129.5498,489.9922 L193.9927,489.9922 L193.9927,497.125 L183.9927,507.125 L129.5498,507.125 L129.5498,489.9922" fill="#EEEEEE" style="stroke:#000000;stroke-width:1.5;"/><rect fill="none" height="90.2031" style="stroke:#000000;stroke-width:1.5;" width="473.7432" x="129.5498" y="489.9922"/><text fill="#000000" font-family="sans-serif" font-size="13" font-weight="bold" lengthAdjust="spacing" textLength="19.4429" x="144.5498" y="503.0591">alt</text><text fill="#000000" font-family="sans-serif" font-size="11" font-weight="bold" lengthAdjust="spacing" textLength="79.5083" x="208.9927" y="502.2026">[limited==1]</text><g class="message" data-participant-1="Limiter" data-participant-2="Handler"><polygon fill="#181818" points="199.1431,524.2578,189.1431,528.2578,199.1431,532.2578,195.1431,528.2578" style="stroke:#181818;stroke-width:1;"/><line style="stroke:#181818;stroke-width:1;stroke-dasharray:2,2;" x1="193.1431" x2="482.4292" y1="528.2578" y2="528.2578"/><text fill="#000000" font-family="sans-serif" font-size="13" lengthAdjust="spacing" textLength="271.2861" x="205.1431" y="523.1919">429 Too Many Requests (with retry_after)</text></g><line style="stroke:#000000;stroke-width:1;stroke-dasharray:2,2;" x1="129.5498" x2="603.293" y1="537.2578" y2="537.2578"/><text fill="#000000" font-family="sans-serif" font-size="11" font-weight="bold" lengthAdjust="spacing" textLength="58.0723" x="134.5498" y="547.4683">[allowed]</text><g class="message" data-participant-1="Limiter" data-participant-2="Handler"><polygon fill="#181818" points="199.1431,568.1953,189.1431,572.1953,199.1431,576.1953,195.1431,572.1953" style="stroke:#181818;stroke-width:1;"/><line style="stroke:#181818;stroke-width:1;stroke-dasharray:2,2;" x1="193.1431" x2="482.4292" y1="572.1953" y2="572.1953"/><text fill="#000000" font-family="sans-serif" font-size="13" lengthAdjust="spacing" textLength="51.9365" x="205.1431" y="567.1294">c.Next()</text></g><line style="stroke:#000000;stroke-width:1;stroke-dasharray:2,2;" x1="119.5498" x2="1095.8335" y1="588.1953" y2="588.1953"/><text fill="#000000" font-family="sans-serif" font-size="11" font-weight="bold" lengthAdjust="spacing" textLength="136.5278" x="124.5498" y="598.4058">[redis timeout / error]</text><g class="message" data-participant-1="Limiter" data-participant-2="Local"><polygon fill="#181818" points="758.7363,619.1328,768.7363,623.1328,758.7363,627.1328,762.7363,623.1328" style="stroke:#181818;stroke-width:1;"/><line style="stroke:#181818;stroke-width:1;" x1="483.4292" x2="764.7363" y1="623.1328" y2="623.1328"/><text fill="#000000" font-family="sans-serif" font-size="13" lengthAdjust="spacing" textLength="242.4233" x="490.4292" y="618.0669">strictLocalRateCheck(identifier, limit)</text></g><path d="M129.5498,638.1328 L193.9927,638.1328 L193.9927,645.2656 L183.9927,655.2656 L129.5498,655.2656 L129.5498,638.1328" fill="#EEEEEE" style="stroke:#000000;stroke-width:1.5;"/><rect fill="none" height="77.3984" style="stroke:#000000;stroke-width:1.5;" width="473.7432" x="129.5498" y="638.1328"/><text fill="#000000" font-family="sans-serif" font-size="13" font-weight="bold" lengthAdjust="spacing" textLength="19.4429" x="144.5498" y="651.1997">alt</text><text fill="#000000" font-family="sans-serif" font-size="11" font-weight="bold" lengthAdjust="spacing" textLength="121.9775" x="208.9927" y="650.3433">[strict local rejects]</text><g class="message" data-participant-1="Limiter" data-participant-2="Handler"><polygon fill="#181818" points="199.1431,672.3984,189.1431,676.3984,199.1431,680.3984,195.1431,676.3984" style="stroke:#181818;stroke-width:1;"/><line style="stroke:#181818;stroke-width:1;stroke-dasharray:2,2;" x1="193.1431" x2="482.4292" y1="676.3984" y2="676.3984"/><text fill="#000000" font-family="sans-serif" font-size="13" lengthAdjust="spacing" textLength="124.1729" x="205.1431" y="671.3325">429 (local fallback)</text></g><line style="stroke:#000000;stroke-width:1;stroke-dasharray:2,2;" x1="129.5498" x2="603.293" y1="685.3984" y2="685.3984"/><g class="message" data-participant-1="Limiter" data-participant-2="Handler"><polygon fill="#181818" points="199.1431,703.5313,189.1431,707.5313,199.1431,711.5313,195.1431,707.5313" style="stroke:#181818;stroke-width:1;"/><line style="stroke:#181818;stroke-width:1;stroke-dasharray:2,2;" x1="193.1431" x2="482.4292" y1="707.5313" y2="707.5313"/><text fill="#000000" font-family="sans-serif" font-size="13" lengthAdjust="spacing" textLength="119.1582" x="205.1431" y="702.4653">c.Next() (proceed)</text></g><path d="M359,741.5313 L359,811.5313 L1021,811.5313 L1021,751.5313 L1011,741.5313 L359,741.5313" fill="#FEFFDD" style="stroke:#181818;stroke-width:0.5;"/><path d="M1011,741.5313 L1011,751.5313 L1021,751.5313 L1011,741.5313" fill="#FEFFDD" style="stroke:#181818;stroke-width:0.5;"/><text fill="#000000" font-family="sans-serif" font-size="13" lengthAdjust="spacing" textLength="109.5669" x="365" y="758.5981">Redis keys used:</text><text fill="#000000" font-family="sans-serif" font-size="13" lengthAdjust="spacing" textLength="517.8481" x="365" y="773.731">- global key: "&lt;KeyPrefix&gt;ratelimit:write:global_limit" (string numeric override)</text><text fill="#000000" font-family="sans-serif" font-size="13" lengthAdjust="spacing" textLength="641.4624" x="365" y="788.8638">- per-identifier key used by Lua: "&lt;KeyPrefix&gt;ratelimit:write:write:&lt;clientip&gt;:&lt;path&gt;:&lt;window&gt;"</text><text fill="#000000" font-family="sans-serif" font-size="13" lengthAdjust="spacing" textLength="429.1587" x="365" y="803.9966">Lua script does: INCR -&gt; if first set EXPIRE(windowSec) atomically</text><!--SRC=[bLHTJzim57tFhxZgKwhrOqpRmoBeIrK16Z1KActID24tlg5U7JkpdPR- -rtRITim1YnIuzI-N-VSu-k4amZVZ70uPmwlH4bV1ah1kSGjCmY5r5j8SrvMmr8eqKzOxhI1gHIeN58nuqGkAgOSzCw5WWkcoDFqWDdskslqGgxWr6ntdQvqpYHuBvYkC5yt2S9srtAENDYfhArhRCB6asWrWxlSYCh1RCDa35Mp98cWO3XfIy_WOh6uXTklTmiORqx6jKLZa-RGspNLPY3KHg__PZ9fKNfRNsq6qY_U92191QUKeX1e1Y2zyG2sGd6z9QQbYzQWDsY6uJG1UY8Tm-Fy1dzX7aetw6gZuEE7pz6sBU0O5Ht2GckuPcf73FskqJgReBJO9bp_Ar5xSi0L6CxWVBQ01wcNJ7x17QHsfOq39qhKjOEJJ-zBsm-U7fNnBlIsbLRS4c2t2XWDiH6C_1FYTfDJj-g3mJ6tDSj2CrFJaazLF67q3lF-mPb4q8dz8zWY7r1T9IEfguUVU-lGYdX-TdQot_u_WY4DGAb1PdVF2d8wb1EuPv8k6_BNm-UZ6tnqwP6xYbuXJ6ItfNuCnAispx8M5McT4RcxUaMN_GuPqQTHInIVVHijQVGf2EoIvUik1M-73cbbT8x8do61LlzBbAQ1OSJ3oYN3HawwGbA8qCh2YcqGEZ8bqZImZHOSbbJbcYH0s4Bpe69kDQ8mNZSs3WyALMXJMhYycSxVpRxVNivdm9mk1G6KEnzCb9N4qWyLAmMdU6EZfVHneoJ1ajQ8vzpwsDVeMRMZC4KQz0ljY2sXSXFY80Ujg2Xc2K8pJEwzvWUnxVUDukEV1jV8qm6UZOOJYOK3NOIf5tbPuyu2ZJUUKHtn6lkz37gdT95k3HRYSUBpXFZPrbUOHRkOiaTNdgedPAekaM3iBtIV8X9LmuEYVEIG39QxU7LVoXBVftaOpgAQPAU-5xH42YUzvAWdN2FHuXlY1IuAA8IXxbcaMHyQb1vcmL6lzWJz0G00]--></g></svg>